<?xml version="1.0" encoding="UTF-8"?>
<svg width="45px" height="45px" viewBox="0 0 45 45" version="1.1" xmlns="http://www.w3.org/2000/svg" xmlns:xlink="http://www.w3.org/1999/xlink">
    <title>我的</title>
    <g id="页面-1" stroke="none" stroke-width="1" fill="none" fill-rule="evenodd">
        <g id="222" transform="translate(-617.000000, -1641.000000)" fill-rule="nonzero">
            <g id="编组" transform="translate(1.000000, 1640.000000)">
                <g id="Group" transform="translate(616.000000, 1.000000)">
                    <rect id="Rectangle" fill="#000000" opacity="0" x="0" y="0" width="45" height="44.3786982"></rect>
                    <path d="M22.5,21.4265902 C17.2924805,21.4265902 13.0517578,17.2487518 13.0517578,12.1087972 C13.0517578,6.96884246 17.2924805,2.79100407 22.5,2.79100407 C27.7075195,2.79100407 31.9482422,6.97317631 31.9482422,12.1087972 C31.9482422,17.244418 27.7075195,21.4265902 22.5,21.4265902 Z M22.5,5.86370886 C19.0063477,5.86370886 16.1630859,8.6677145 16.1630859,12.113131 C16.1630859,15.5585475 19.0063477,18.3582193 22.5,18.3582193 C25.9936523,18.3582193 28.8369141,15.5542137 28.8369141,12.1087972 C28.8369141,8.66338064 25.9936523,5.86370886 22.5,5.86370886 Z" id="Shape" fill="#DCDCDC"></path>
                    <path d="M29.7773437,41.5876942 L15.2226562,41.5876942 C10.125,41.5876942 5.9765625,37.4965329 5.9765625,32.4692585 L5.9765625,32.2872365 C5.9765625,27.2599621 10.125,23.1688009 15.2226562,23.1688009 L29.7773437,23.1688009 C34.875,23.1688009 39.0234375,27.2599621 39.0234375,32.2872365 L39.0234375,32.4692585 C39.0234375,37.4965329 34.875,41.5876942 29.7773437,41.5876942 Z M15.2226562,26.2371718 C11.8432617,26.2371718 9.08789062,28.9501664 9.08789062,32.2872365 L9.08789062,32.4692585 C9.08789062,35.8063286 11.8388672,38.5193232 15.2226562,38.5193232 L29.7773437,38.5193232 C33.1567383,38.5193232 35.9121094,35.8063286 35.9121094,32.4692585 L35.9121094,32.2872365 C35.9121094,28.9501664 33.1611328,26.2371718 29.7773437,26.2371718 L15.2226562,26.2371718 Z" id="Shape" fill="#DCDCDC"></path>
                </g>
            </g>
        </g>
    </g>
</svg>