<?xml version="1.0" encoding="UTF-8"?>
<svg width="45px" height="45px" viewBox="0 0 45 45" version="1.1" xmlns="http://www.w3.org/2000/svg" xmlns:xlink="http://www.w3.org/1999/xlink">
    <title>好房拓 4.0.0 iconfont_朋友圈</title>
    <g id="页面-1" stroke="none" stroke-width="1" fill="none" fill-rule="evenodd">
        <g id="222" transform="translate(-454.000000, -1640.000000)" fill="#DCDCDC" fill-rule="nonzero">
            <g id="编组" transform="translate(1.000000, 1640.000000)">
                <g id="编组-17" transform="translate(434.000000, 0.000000)">
                    <g id="好房拓-4.0.0-iconfont_朋友圈" transform="translate(19.000000, 0.000000)">
                        <rect id="矩形" opacity="0" x="0" y="0" width="45" height="45"></rect>
                        <path d="M38.255805,15.843645 C38.149965,15.5934 38.038365,15.346395 37.921365,15.10254 C37.92033,15.10056 37.91961,15.09849 37.918575,15.09651 C37.08378,13.358205 35.96715,11.784105 34.5915,10.408455 C33.02136,8.838315 31.192695,7.60545 29.156355,6.74415 C27.04761,5.85225 24.808095,5.4 22.5,5.4 C20.191905,5.4 17.95239,5.85225 15.843645,6.74415 C13.807305,7.60545 11.97864,8.838315 10.4085,10.408455 C8.83836,11.978595 7.605495,13.80726 6.744195,15.8436 C5.85225,17.95239 5.4,20.191905 5.4,22.5 C5.4,24.808095 5.85225,27.04761 6.744195,29.156355 C6.850035,29.4066 6.961635,29.653605 7.078635,29.89746 C7.07967,29.89944 7.08039,29.90151 7.081425,29.90349 C7.91622,31.641795 9.03285,33.215895 10.4085,34.591545 C11.97864,36.161685 13.807305,37.39455 15.843645,38.25585 C17.95239,39.14775 20.191905,39.6 22.5,39.6 C24.808095,39.6 27.04761,39.14775 29.156355,38.25585 C31.192695,37.39455 33.02136,36.161685 34.5915,34.591545 C36.16164,33.021405 37.394505,31.19274 38.255805,29.1564 C39.14775,27.04761 39.6,24.808095 39.6,22.5 C39.6,20.191905 39.14775,17.95239 38.255805,15.843645 Z M7.2,22.5 C7.2,20.952045 7.42878,19.439325 7.86951,18 L18.095265,18 C18.0783,18.014625 18.06129,18.02916 18.045225,18.045225 L8.180595,27.909855 C7.53696,26.203905 7.2,24.37794 7.2,22.5 Z M18,22.5 C18,20.0187 20.0187,18 22.5,18 C24.9813,18 27,20.0187 27,22.5 C27,24.9813 24.9813,27 22.5,27 C20.0187,27 18,24.9813 18,22.5 Z M26.954775,26.954775 L36.819405,17.090145 C37.46304,18.796095 37.8,20.62206 37.8,22.5 C37.8,24.047955 37.57122,25.560675 37.13049,27 L26.904735,27 C26.9217,26.985375 26.93871,26.97084 26.954775,26.954775 Z M33.318765,11.68128 C34.413345,12.77586 35.32122,14.007285 36.027315,15.336675 L28.79919,22.5648 C28.799415,22.5432 28.8,22.52169 28.8,22.5 L28.8,8.54928 C30.461445,9.300465 31.990815,10.353375 33.318765,11.68128 Z M27,7.86951 L27,18.095265 C26.985375,18.0783 26.970885,18.06129 26.954775,18.045225 L17.090145,8.180595 C18.796095,7.53696 20.62206,7.2 22.5,7.2 C24.047955,7.2 25.560675,7.42878 27,7.86951 Z M11.681235,11.68128 C12.775815,10.5867 14.00724,9.678825 15.33663,8.97273 L22.5648,16.20081 C22.5432,16.200585 22.52169,16.2 22.5,16.2 L8.54928,16.2 C9.300465,14.538555 10.35333,13.009185 11.681235,11.68128 Z M11.681235,33.31872 C10.586655,32.22414 9.67878,30.992715 8.972685,29.663325 L16.20081,22.4352 C16.200585,22.4568 16.2,22.47831 16.2,22.5 L16.2,36.45072 C14.538555,35.699535 13.009185,34.646625 11.681235,33.31872 Z M18,37.13049 L18,26.904735 C18.014625,26.9217 18.029115,26.93871 18.045225,26.954775 L27.909855,36.819405 C26.203905,37.46304 24.37794,37.8 22.5,37.8 C20.952045,37.8 19.439325,37.57122 18,37.13049 Z M33.318765,33.31872 C32.224185,34.4133 30.99276,35.321175 29.66337,36.02727 L22.4352,28.79919 C22.4568,28.799415 22.47831,28.8 22.5,28.8 L36.45072,28.8 C35.699535,30.461445 34.64667,31.990815 33.318765,33.31872 Z" id="形状"></path>
                    </g>
                </g>
            </g>
        </g>
    </g>
</svg>