<?xml version="1.0" encoding="UTF-8"?>
<svg width="40px" height="40px" viewBox="0 0 40 40" version="1.1" xmlns="http://www.w3.org/2000/svg" xmlns:xlink="http://www.w3.org/1999/xlink">
    <title>nlsasrcustommodel</title>
    <g id="页面-1" stroke="none" stroke-width="1" fill="none" fill-rule="evenodd">
        <g id="222" transform="translate(-267.000000, -1643.000000)" fill="#C9C9C9" fill-rule="nonzero">
            <g id="编组" transform="translate(1.000000, 1640.000000)">
                <g id="编组-20" transform="translate(237.000000, 3.000000)">
                    <g id="nlsasrcustommodel" transform="translate(29.000000, 0.000000)">
                        <path d="M18.6877264,11.0790308 L21.314538,11.0790308 L21.314538,29.1949728 L18.6877264,29.1949728 L18.6877264,11.0790308 Z M23.8507699,14.9739583 L26.4775815,14.9739583 L26.4775815,25.3000453 L23.8507699,25.3000453 L23.8507699,14.9739583 Z M13.524683,14.9739583 L16.1514946,14.9739583 L16.1514946,25.3000453 L13.524683,25.3000453 L13.524683,14.9739583 Z M8.36163948,18.1442482 L10.9884511,18.1442482 L10.9884511,22.0391757 L8.36163948,22.0391757 L8.36163948,18.1442482 Z M29.0138134,18.1442482 L31.640625,18.1442482 L31.640625,22.0391757 L29.0138134,22.0391757 L29.0138134,18.1442482 Z" id="形状"></path>
                        <path d="M23.6696105,4.19497283 C30.3725091,5.73482791 35.5355526,11.4413497 36.1696105,18.4159873 L38.524683,18.4159873 C37.890625,10.3543931 32.0029438,3.74207426 24.3036685,1.93048009 L24.756567,0.0283061736 L20.2275815,2.02105978 L23.1261323,6.00656704 L23.6696105,4.19497283 Z M16.332654,35.8072917 C9.62975543,34.2674366 4.46671196,28.5609148 3.832654,21.5862772 L1.47758152,21.5862772 C2.11163948,29.6478714 7.99932065,36.2601902 15.698596,38.0717844 L15.2456975,39.8833786 L19.774683,37.890625 L16.8761323,33.9051177 L16.332654,35.8072917 L16.332654,35.8072917 Z M2.02105978,19.774683 L6.00656704,16.8761323 L4.19497283,16.4232337 C5.73482791,9.72033513 11.4413497,4.55729165 18.4159873,3.9232337 L18.4159873,1.47758152 C10.3543931,2.20221922 3.74207426,7.99932065 1.93048009,15.698596 L0.0283061736,15.2456975 L2.02105978,19.774683 Z M39.8833786,24.6659873 L37.890625,20.1370018 L33.9051177,23.0355525 L35.716712,23.4884511 C34.1768569,30.1913497 28.4703351,35.3543931 21.4956975,35.9884511 L21.4956975,38.3435236 C29.6478714,37.8000453 36.2601902,31.9123641 38.0717844,24.2130888 L39.8833786,24.6659873 L39.8833786,24.6659873 Z" id="形状"></path>
                    </g>
                </g>
            </g>
        </g>
    </g>
</svg>